<svg id="Layer_1" data-name="Layer 1" xmlns="http://www.w3.org/2000/svg" viewBox="0 0 544.38 173.67"><defs><style>.cls-1{fill:none;stroke:#0174a5;stroke-miterlimit:10;stroke-width:8px;}.cls-2{fill:#1b3654;}</style></defs><title>logo</title><path class="cls-1" d="M167.54,657H113.38a25.91,25.91,0,0,1-25.92-25.92V524.42a25.92,25.92,0,0,1,25.92-25.92h410a25.89,25.89,0,0,1,16.82,6.21l74.57,51.8a25.92,25.92,0,0,1,.5,39l-75,54.9A25.94,25.94,0,0,1,523,657Z" transform="translate(-83.46 -494.5)"/><path class="cls-1" d="M609.1,575.22a17.9,17.9,0,1,1-17.9-17.9A17.9,17.9,0,0,1,609.1,575.22Z" transform="translate(-83.46 -494.5)"/><path class="cls-1" d="M576.94,589.62c6.69-10,14.92-15.58,22.25-13.79,12.17,3,17.23,25.07,11.31,49.37s-20.59,41.6-32.76,38.64c-8.86-2.16-14-14.48-13.78-30.41" transform="translate(-83.46 -494.5)"/><path class="cls-2" d="M180.46,541.32q11.19,0,16.06,5.06t4.87,15v7.2q0,9.93-4.87,15t-16.06,5.07H140.18V607.3a1.9,1.9,0,0,1-2.15,2.14H127.52c-1.49,0-2.23-.71-2.23-2.14V544.24a2.58,2.58,0,0,1,2.92-2.92Zm-40.28,34.45h37.27q5,0,7-2.14t2.05-6.52v-3.7q0-4.38-2.05-6.52t-7-2.14h-36q-1.26,0-1.26,1.17Z" transform="translate(-83.46 -494.5)"/><path class="cls-2" d="M267.56,541.32a48.76,48.76,0,0,1,12.6,1.41,19.51,19.51,0,0,1,8.47,4.48,17.49,17.49,0,0,1,4.72,7.93A41.86,41.86,0,0,1,294.81,567v16.74a42.43,42.43,0,0,1-1.46,11.92,17.51,17.51,0,0,1-4.72,8,19.25,19.25,0,0,1-8.47,4.43,50.32,50.32,0,0,1-12.6,1.36H237.49a49.73,49.73,0,0,1-12.55-1.36,19.22,19.22,0,0,1-8.42-4.43,17.94,17.94,0,0,1-4.77-8,40.87,40.87,0,0,1-1.51-11.92V567a40.32,40.32,0,0,1,1.51-11.87,17.93,17.93,0,0,1,4.77-7.93,19.49,19.49,0,0,1,8.42-4.48,48.2,48.2,0,0,1,12.55-1.41Zm-42.43,41.36a26.73,26.73,0,0,0,.64,6.37,8.68,8.68,0,0,0,2.09,4.09,8,8,0,0,0,3.94,2.14,26.09,26.09,0,0,0,6.28.63H267a26.15,26.15,0,0,0,6.28-.63,8.13,8.13,0,0,0,3.94-2.14,8.77,8.77,0,0,0,2.09-4.09,27.32,27.32,0,0,0,.63-6.37v-14.6a27.32,27.32,0,0,0-.63-6.37,8.77,8.77,0,0,0-2.09-4.09,8.13,8.13,0,0,0-3.94-2.14,26.15,26.15,0,0,0-6.28-.63h-28.9a26.09,26.09,0,0,0-6.28.63,8,8,0,0,0-3.94,2.14,8.68,8.68,0,0,0-2.09,4.09,26.73,26.73,0,0,0-.64,6.37Z" transform="translate(-83.46 -494.5)"/><path class="cls-2" d="M365.85,541.32q10,0,14.26,4t4.23,12.07v4.67q0,8.18-6.23,12.36,6.72,3.89,6.72,12.55v5.64a26,26,0,0,1-.88,7,12.16,12.16,0,0,1-8.17,8.66,24.76,24.76,0,0,1-8.18,1.17H309.8a2.58,2.58,0,0,1-2.92-2.92V544.24a2.58,2.58,0,0,1,2.92-2.92Zm-44.08,28.32h39.9c3.24,0,5.45-.49,6.61-1.46A5.24,5.24,0,0,0,370,563.9v-3.31a5.41,5.41,0,0,0-1.7-4.43c-1.13-.94-3-1.41-5.5-1.41H323a1.11,1.11,0,0,0-1.26,1.26Zm0,10.61v14.5A1.11,1.11,0,0,0,323,596h39.9q3.88,0,5.55-1.41t1.65-4.53v-3.69a5.74,5.74,0,0,0-1.8-4.58q-1.8-1.54-6.66-1.55Z" transform="translate(-83.46 -494.5)"/><path class="cls-2" d="M465.6,541.32c1.49,0,2.24.71,2.24,2.14v9.25c0,1.42-.75,2.14-2.24,2.14H423.07a26.15,26.15,0,0,0-6.28.63,8.44,8.44,0,0,0-4,2.14,8.25,8.25,0,0,0-2.09,4.09,29.38,29.38,0,0,0-.58,6.37v1h55a1.9,1.9,0,0,1,2.14,2.15v7.68a1.89,1.89,0,0,1-2.14,2.14h-55v1.66a29.38,29.38,0,0,0,.58,6.37,8.25,8.25,0,0,0,2.09,4.09,8.44,8.44,0,0,0,4,2.14,26.15,26.15,0,0,0,6.28.63H465.6c1.49,0,2.24.72,2.24,2.14v9.25c0,1.43-.75,2.14-2.24,2.14H422.78a49.68,49.68,0,0,1-12.55-1.36,19.22,19.22,0,0,1-8.42-4.43,17.76,17.76,0,0,1-4.77-8,40.87,40.87,0,0,1-1.51-11.92V567A40.32,40.32,0,0,1,397,555.14a17.75,17.75,0,0,1,4.77-7.93,19.49,19.49,0,0,1,8.42-4.48,48.14,48.14,0,0,1,12.55-1.41Z" transform="translate(-83.46 -494.5)"/><path class="cls-2" d="M491.58,541.32a1.89,1.89,0,0,1,2.14,2.14v38.83a27.88,27.88,0,0,0,.63,6.47,8.78,8.78,0,0,0,2.1,4.09,8.12,8.12,0,0,0,3.94,2.14,26,26,0,0,0,6.28.63h39.41a1.9,1.9,0,0,1,2.14,2.14v9.54a1.89,1.89,0,0,1-2.14,2.14h-40a49.73,49.73,0,0,1-12.55-1.36,19.22,19.22,0,0,1-8.42-4.43,17.94,17.94,0,0,1-4.77-8,40.87,40.87,0,0,1-1.51-11.92V543.46c0-1.43.75-2.14,2.24-2.14Z" transform="translate(-83.46 -494.5)"/></svg>